<svg width="65" height="31" viewBox="0 0 65 31" fill="none" xmlns="http://www.w3.org/2000/svg">
<path d="M0 15.838C0 11.4921 1.49425 7.77361 4.48274 4.68253C7.47123 1.56084 11.1361 0 15.4772 0C17.7107 0 21.4385 0.688607 26.6605 2.06582C26.7863 5.55476 26.8492 7.45226 26.8492 7.75831C26.8492 8.21738 26.5189 8.44691 25.8583 8.44691C25.5437 8.44691 25.3393 8.3704 25.2449 8.21738C24.3955 4.02453 21.1868 1.9281 15.6188 1.9281C12.473 1.9281 9.84629 3.2288 7.73862 5.83021C5.63095 8.43161 4.57711 11.5686 4.57711 15.2412C4.57711 18.6383 5.72532 21.7753 8.02174 24.6521C10.3496 27.4984 13.2595 28.9215 16.7513 28.9215C19.5196 28.9215 21.5643 28.5848 22.8856 27.9115C23.1058 27.8197 23.2159 27.5902 23.2159 27.2229L23.1687 23.4585V23.1372C23.1687 21.1479 23.0428 19.8319 22.7912 19.1892C22.6654 18.8831 22.1463 18.6383 21.234 18.4547C20.3532 18.271 19.6611 18.1792 19.1578 18.1792C19.032 18.1792 18.9691 17.9956 18.9691 17.6283C18.9691 17.2305 19.032 16.9703 19.1578 16.8479C23.1844 17.0009 25.2449 17.0775 25.3393 17.0775C25.5909 17.0775 27.2896 17.0009 30.4354 16.8479C30.4983 17.0315 30.5298 17.2458 30.5298 17.4906C30.5298 17.9497 30.4669 18.1792 30.3411 18.1792C30.1523 18.1792 29.7119 18.2863 29.0198 18.5006C28.3592 18.6842 27.8874 18.8525 27.6042 19.0056C27.2896 19.2198 27.1324 20.245 27.1324 22.0813C27.1324 22.724 27.1481 23.4279 27.1795 24.1931C27.2425 24.9276 27.2739 25.3254 27.2739 25.3866C27.2739 25.9375 27.384 26.4731 27.6042 26.9934C27.8244 27.5137 27.9345 27.8197 27.9345 27.9115C27.9345 28.1564 27.5413 28.4318 26.7549 28.7379C26.692 28.7685 26.3774 28.8909 25.8111 29.1051C25.2764 29.2888 24.9303 29.4112 24.773 29.4724C24.6157 29.5336 24.254 29.656 23.6877 29.8396C23.1529 29.9927 22.7125 30.0998 22.3665 30.161C22.0519 30.2222 21.5801 30.314 20.9509 30.4364C20.3532 30.5589 19.7712 30.6354 19.205 30.666C18.6702 30.7272 18.0253 30.7731 17.2703 30.8037C16.5468 30.8649 15.7761 30.8955 14.9582 30.8955C10.8058 30.8955 7.26675 29.4112 4.34118 26.4425C1.44706 23.4739 0 19.939 0 15.838Z" fill="white"/>
<path d="M39.4481 0.504979C40.0773 0.504979 40.6907 0.489676 41.2884 0.459071C41.8861 0.428467 42.531 0.397862 43.223 0.367257C43.9151 0.306048 44.4813 0.26014 44.9218 0.229536C44.9847 0.351955 45.0004 0.612095 44.9689 1.00996C44.9689 1.37721 44.9218 1.56084 44.8274 1.56084C44.5128 1.56084 43.9466 1.66796 43.1287 1.88219C42.3108 2.09643 41.8703 2.31066 41.8074 2.52489C41.5243 3.59606 41.3828 5.01918 41.3828 6.79426V14.2771L41.7131 14.5526H42.0434C43.05 14.5526 43.9623 14.1088 44.7802 13.2213C48.4608 9.21203 51.1661 6.10565 52.8963 3.90211C53.6513 3.01457 54.0288 2.43308 54.0288 2.15764C54.0288 1.63735 53.1322 1.37721 51.3391 1.37721C51.2133 1.37721 51.1504 1.23949 51.1504 0.96405C51.1504 0.688607 51.1819 0.443769 51.2448 0.229536C51.6537 0.26014 52.1885 0.306048 52.8491 0.367257C53.5097 0.397862 54.1232 0.428467 54.6894 0.459071C55.2556 0.489676 55.7904 0.504979 56.2938 0.504979C57.0802 0.504979 57.9767 0.474374 58.9834 0.413164C59.99 0.32135 60.6821 0.26014 61.0596 0.229536C61.1225 0.351955 61.1383 0.58149 61.1068 0.918143C61.1068 1.22419 61.0596 1.37721 60.9652 1.37721C59.0463 1.59145 57.5993 2.23415 56.6241 3.30531L47.1395 14.0476C46.8879 14.323 46.998 14.7362 47.4698 15.2871L58.8418 27.4525C59.3452 27.9727 60.0058 28.4012 60.8237 28.7379C61.6416 29.0745 62.2707 29.2735 62.7111 29.3347C63.183 29.3959 63.5605 29.4265 63.8436 29.4265C64.0009 29.4265 64.0796 29.7019 64.0796 30.2528C64.0796 30.467 64.0481 30.6354 63.9852 30.7578C60.8394 30.6048 58.889 30.5282 58.134 30.5282C57.3476 30.5282 56.6398 30.5436 56.0106 30.5742C55.3815 30.6048 54.6737 30.6354 53.8872 30.666C53.1008 30.6966 52.393 30.7272 51.7638 30.7578C51.638 30.6354 51.5751 30.3905 51.5751 30.0233C51.5751 29.6254 51.638 29.4265 51.7638 29.4265C52.1413 29.4265 52.566 29.3653 53.0379 29.2428C53.5412 29.1204 53.7929 28.9368 53.7929 28.692C53.7929 27.7126 50.2224 23.6575 43.0815 16.5266C42.9556 16.4042 42.4995 16.3429 41.7131 16.3429C41.4929 16.3429 41.3828 16.4654 41.3828 16.7102V24.239C41.3828 26.014 41.5243 27.4372 41.8074 28.5083C41.8703 28.7226 42.3108 28.9368 43.1287 29.151C43.9466 29.3347 44.5128 29.4265 44.8274 29.4265C44.9218 29.4265 44.9689 29.6101 44.9689 29.9774C45.0004 30.3446 44.9847 30.6048 44.9218 30.7578C41.776 30.6048 39.9514 30.5282 39.4481 30.5282C39.2908 30.5282 37.4033 30.6048 33.7857 30.7578C33.6599 30.6354 33.5969 30.4058 33.5969 30.0692C33.5969 29.6407 33.6599 29.4265 33.7857 29.4265C34.1946 29.4265 34.7923 29.3347 35.5788 29.151C36.3967 28.9674 36.8528 28.7532 36.9472 28.5083C37.1674 27.682 37.2775 26.3201 37.2775 24.4226V6.61063C37.2775 4.71313 37.1674 3.35122 36.9472 2.52489C36.8528 2.28005 36.3967 2.06582 35.5788 1.88219C34.7923 1.66796 34.1946 1.56084 33.7857 1.56084C33.6599 1.56084 33.5969 1.36191 33.5969 0.96405C33.5969 0.596793 33.6599 0.351955 33.7857 0.229536C34.1946 0.26014 35.0283 0.32135 36.2866 0.413164C37.5449 0.474374 38.5987 0.504979 39.4481 0.504979Z" fill="white"/>
</svg>
