<svg width="28" height="28" viewBox="0 0 28 28" fill="none" xmlns="http://www.w3.org/2000/svg">
<g clip-path="url(#clip0)">
<path d="M24.9349 10.2964C25.338 11.4862 25.5425 12.7307 25.5425 14C25.5425 20.3646 20.3646 25.5426 14 25.5426C7.63535 25.5426 2.45728 20.3646 2.45728 14C2.45728 7.63535 7.63526 2.45753 13.9999 2.45753C15.2693 2.45753 16.5139 2.66187 17.7035 3.06519L17.7035 0.496547C16.5018 0.167133 15.2607 -3.32897e-07 14 -3.05394e-07C6.2804 -1.37e-07 1.37e-07 6.2804 3.05396e-07 14C4.73792e-07 21.7197 6.2804 28.0001 14 28.0001C21.7195 28.0001 27.9998 21.7197 27.9998 14C27.9998 12.7393 27.8328 11.4982 27.5034 10.2964L24.9349 10.2964Z" fill="white"/>
<path d="M24.2354 3.75573L24.2354 1.07129L22.3051 1.07129L22.3051 3.75573L19.6367 3.75573L19.6367 5.68589L22.3051 5.68589L22.3051 8.37024L24.2354 8.37024L24.2354 5.68589L26.9197 5.68589L26.9197 3.75573L24.2354 3.75573Z" fill="white"/>
<path d="M8.13 18.776L8.13 16.826C8.13 16.2193 8.28167 15.721 8.585 15.331C8.897 14.941 9.417 14.59 10.145 14.278L11.679 13.615C12.0603 13.4503 12.3463 13.2467 12.537 13.004C12.7277 12.7613 12.823 12.4537 12.823 12.081C12.823 11.6997 12.7017 11.3877 12.459 11.145C12.225 10.9023 11.887 10.781 11.445 10.781C10.9943 10.781 10.652 10.9067 10.418 11.158C10.184 11.4093 10.067 11.7473 10.067 12.172L8 12.172C8 11.574 8.13 11.0367 8.39 10.56C8.65 10.0833 9.03567 9.70633 9.547 9.429C10.0583 9.143 10.691 9 11.445 9C12.1903 9 12.8187 9.13433 13.33 9.403C13.8413 9.67167 14.227 10.0357 14.487 10.495C14.7557 10.9457 14.89 11.4483 14.89 12.003L14.89 12.159C14.89 12.887 14.6907 13.4893 14.292 13.966C13.8933 14.4427 13.278 14.8587 12.446 15.214L10.925 15.877C10.665 15.9897 10.4787 16.111 10.366 16.241C10.262 16.3623 10.21 16.5227 10.21 16.722L10.21 16.943L14.903 16.943L14.903 18.776L8.13 18.776Z" fill="white"/>
<path d="M17.8519 18.776L17.8519 11.132L15.9929 11.132L15.9929 9.286L19.9709 9.286L19.9709 18.776L17.8519 18.776Z" fill="white"/>
</g>
<defs>
<clipPath id="clip0">
<rect width="28" height="28" fill="white"/>
</clipPath>
</defs>
</svg>
