<svg width="30" height="30" viewBox="0 0 30 30" fill="none" xmlns="http://www.w3.org/2000/svg">
<rect width="30" height="30" rx="15" fill="#E1E1E1"/>
<g clip-path="url(#clip0)">
<path d="M20.6779 17.3043C20.6779 17.3043 19.2384 17.3274 19.3081 19.3764C19.3777 21.4255 20.794 23.4055 20.91 23.4976C21.0262 23.5897 21.5369 23.912 21.7691 23.2674C22.0012 22.6227 23.3246 17.1201 20.6779 17.3043Z" fill="black" stroke="#E1E1E1" stroke-width="0.1" stroke-miterlimit="10"/>
<path d="M8.51233 17.5804C8.51233 17.5804 8.32659 25.3854 14.4327 28.7928C16.615 29.8519 19.4011 25.4775 19.7261 24.8789C20.0512 24.2803 22.0478 19.9288 21.746 17.5804C21.4441 15.232 21.1656 17.4192 21.1656 17.4192C21.1656 17.4192 17.8687 18.8927 17.7527 18.9157C17.6134 18.9618 13.9915 19.7216 13.9915 19.7216L10.9965 18.4092L9.64996 17.7646L9.06953 17.0278L8.72128 17.0738L8.51233 17.5804Z" fill="black"/>
<path d="M15.0369 19.5605C19.4222 19.5605 22.9771 16.0352 22.9771 11.6865C22.9771 7.33782 19.4222 3.8125 15.0369 3.8125C10.6516 3.8125 7.09668 7.33782 7.09668 11.6865C7.09668 16.0352 10.6516 19.5605 15.0369 19.5605Z" fill="black" stroke="#E1E1E1" stroke-width="0.1" stroke-miterlimit="10"/>
<path d="M14.5492 15.9222C14.4099 15.669 14.4564 15.3467 14.4796 15.0474C14.5492 14.1725 14.4099 13.2976 14.5956 12.4457C14.6653 12.0543 14.8278 11.6859 15.1296 11.4097C15.4082 11.1564 15.7797 10.9952 16.128 10.8571C16.1976 10.8341 16.2673 10.811 16.3137 10.788C18.0318 10.1434 19.773 9.33754 20.8874 7.88706C20.9803 7.77195 21.0732 7.65683 21.1893 7.63381C21.3518 7.61078 21.5143 7.72589 21.6304 7.86404C22.118 8.41661 22.3501 9.15335 22.5127 9.86708C22.6752 10.5578 22.7912 11.2715 22.652 11.9622C22.4894 12.722 22.0018 13.3437 21.4679 13.9192C20.7017 14.7711 19.7962 15.5308 18.7747 16.0604C18.1943 16.3597 17.5674 16.5899 16.9174 16.659C16.2673 16.728 15.5708 16.636 15.0136 16.3367C14.8278 16.2215 14.6653 16.1065 14.5492 15.9222Z" fill="#E1E1E1"/>
<path d="M15.0365 5.81506C15.8699 5.81506 16.5456 5.43366 16.5456 4.96319C16.5456 4.49272 15.8699 4.11133 15.0365 4.11133C14.203 4.11133 13.5273 4.49272 13.5273 4.96319C13.5273 5.43366 14.203 5.81506 15.0365 5.81506Z" fill="black" stroke="#E1E1E1" stroke-width="0.1" stroke-miterlimit="10"/>
<path fill-rule="evenodd" clip-rule="evenodd" d="M15.4549 3.08161C15.8239 2.92173 16.0817 2.55661 16.0817 2.13176C16.0817 1.55956 15.614 1.0957 15.037 1.0957C14.4599 1.0957 13.9922 1.55956 13.9922 2.13176C13.9922 2.55661 14.2501 2.92173 14.6191 3.08161V4.98667C14.6191 5.00969 14.6423 5.03271 14.6655 5.03271H15.4084C15.4316 5.03271 15.4549 5.00969 15.4549 4.98667V3.08161Z" fill="black"/>
<path d="M15.4548 3.08151L15.4529 3.07712L15.45 3.07837V3.08151H15.4548ZM14.619 3.08151H14.6238V3.07837L14.6209 3.07712L14.619 3.08151ZM15.4567 3.08588C15.8274 2.92527 16.0865 2.55847 16.0865 2.13166H16.0768C16.0768 2.55454 15.8202 2.91798 15.4529 3.07712L15.4567 3.08588ZM16.0865 2.13166C16.0865 1.55682 15.6166 1.09082 15.0369 1.09082V1.10038C15.6112 1.10038 16.0768 1.56209 16.0768 2.13166H16.0865ZM15.0369 1.09082C14.4572 1.09082 13.9873 1.55682 13.9873 2.13166H13.9969C13.9969 1.56209 14.4625 1.10038 15.0369 1.10038V1.09082ZM13.9873 2.13166C13.9873 2.55847 14.2464 2.92527 14.6171 3.08588L14.6209 3.07712C14.2536 2.91798 13.9969 2.55454 13.9969 2.13166H13.9873ZM14.6238 4.98657V3.08151H14.6142V4.98657H14.6238ZM14.6654 5.02783C14.6554 5.02783 14.6449 5.0228 14.6369 5.01484C14.6289 5.00688 14.6238 4.99652 14.6238 4.98657H14.6142C14.6142 4.99963 14.6207 5.01229 14.6301 5.0216C14.6395 5.03091 14.6522 5.03739 14.6654 5.03739V5.02783ZM15.4084 5.02783H14.6654V5.03739H15.4084V5.02783ZM15.45 4.98657C15.45 4.99652 15.4449 5.00688 15.4369 5.01484C15.4288 5.0228 15.4184 5.02783 15.4084 5.02783V5.03739C15.4215 5.03739 15.4343 5.03091 15.4437 5.0216C15.4531 5.01229 15.4596 4.99963 15.4596 4.98657H15.45ZM15.45 3.08151V4.98657H15.4596V3.08151H15.45Z" fill="#E1E1E1"/>
<path d="M21.6537 17.5577C18.8212 22.0012 12.7384 20.827 10.3239 19.5377C7.93251 18.2254 8.58259 16.3145 8.58259 16.3145H8.72189C10.1381 18.2714 12.5063 19.5607 15.1298 19.5607C17.7765 19.5607 20.0982 18.2714 21.5144 16.3145H21.6305C21.6537 16.3145 21.8859 16.844 21.6537 17.5577Z" fill="black" stroke="#E1E1E1" stroke-width="0.1" stroke-miterlimit="10"/>
<path d="M9.92855 23.6588C10.9031 23.6588 11.693 22.8754 11.693 21.9089C11.693 20.9426 10.9031 20.1592 9.92855 20.1592C8.95405 20.1592 8.16406 20.9426 8.16406 21.9089C8.16406 22.8754 8.95405 23.6588 9.92855 23.6588Z" fill="black" stroke="#E1E1E1" stroke-width="0.1" stroke-miterlimit="10"/>
<path d="M9.34859 20.9417C9.34859 20.9417 7.93235 21.264 8.44312 23.244C8.9539 25.224 10.7416 26.8817 10.8577 26.9508C10.9738 27.0199 11.5542 27.2271 11.6471 26.5594C11.7399 25.8917 11.9024 20.2049 9.34859 20.9417Z" fill="black"/>
<path d="M22.4887 18.6635C22.3744 18.4891 22.1586 18.4024 21.951 18.4472L8.77756 21.219C8.51432 21.2749 8.31002 21.4654 8.2443 21.7163C8.17905 21.966 8.2639 22.227 8.46439 22.3965L10.1146 23.8053C10.2744 23.9417 10.4974 23.9825 10.6966 23.9115L14.8616 22.4297L11.5328 24.2257C11.3765 24.3101 11.27 24.4627 11.2479 24.634L10.9871 26.6555C10.9602 26.8641 11.0548 27.0702 11.2339 27.1938C11.4134 27.3173 11.6469 27.3369 11.8443 27.2446L13.3261 26.547L14.5591 27.5985C14.6671 27.691 14.8024 27.7496 14.9442 27.7676C14.9921 27.7736 15.0409 27.7751 15.0895 27.7716C15.2835 27.7578 15.4652 27.6669 15.5882 27.5224L22.4572 19.2226C22.5907 19.0629 22.6034 18.8387 22.4887 18.6635ZM15.0188 26.952L13.7419 25.863C13.6531 25.7872 13.5454 25.7412 13.4337 25.727C13.3244 25.7132 13.2111 25.7298 13.1075 25.7786L11.8425 26.3741L12.0391 24.8503L17.9169 21.6788C18.1794 21.5372 18.2803 21.2316 18.1515 20.9681C18.0227 20.7045 17.7125 20.5816 17.4299 20.6822L10.5435 23.1323L9.14771 21.9407L21.2787 19.3883L15.0188 26.952Z" fill="#E1E1E1"/>
<path d="M17.2646 14.0689C17.7171 14.0689 18.0839 13.7052 18.0839 13.2566C18.0839 12.808 17.7171 12.4443 17.2646 12.4443C16.8121 12.4443 16.4453 12.808 16.4453 13.2566C16.4453 13.7052 16.8121 14.0689 17.2646 14.0689Z" fill="black"/>
<path d="M20.4462 12.1578C20.8987 12.1578 21.2655 11.7941 21.2655 11.3455C21.2655 10.8969 20.8987 10.5332 20.4462 10.5332C19.9938 10.5332 19.627 10.8969 19.627 11.3455C19.627 11.7941 19.9938 12.1578 20.4462 12.1578Z" fill="black"/>
<path d="M11.8194 22.6699C12.1728 22.1761 12.8122 21.1982 12.5423 21.2364C12.2724 21.2747 11.1126 21.5391 10.5664 21.6665C10.7431 22.0806 11.1062 22.9088 11.1447 22.9088C11.1833 22.9088 11.6106 22.7495 11.8194 22.6699Z" fill="black"/>
</g>
<defs>
<clipPath id="clip0">
<rect width="16" height="28" fill="white" transform="translate(7 1)"/>
</clipPath>
</defs>
</svg>
