<svg width="154" height="28" viewBox="0 0 154 28" fill="none" xmlns="http://www.w3.org/2000/svg">
<path d="M0.666504 11.4099C0.666504 8.70914 1.58725 6.38186 3.42875 4.42809C5.27024 2.47432 7.50497 1.49744 10.1329 1.49744C11.821 1.49744 14.0461 1.8518 16.8084 2.56052C16.8659 2.57967 16.9426 3.22135 17.0385 4.48555C17.1536 5.7306 17.2112 6.46805 17.2112 6.69791C17.2112 6.92776 17.0194 7.04269 16.6357 7.04269C16.3672 7.04269 16.1562 6.98523 16.0027 6.8703C15.9452 6.60214 15.8588 6.33397 15.7437 6.06581C15.6478 5.79764 15.456 5.46244 15.1683 5.06019C14.8997 4.63879 14.564 4.28443 14.1612 3.99711C13.7776 3.70979 13.2405 3.46078 12.5499 3.25008C11.8785 3.02023 11.1112 2.9053 10.248 2.9053C8.36817 2.9053 6.90073 3.65233 5.84571 5.14639C4.79069 6.64045 4.26317 8.5559 4.26317 10.8928C4.26317 12.2719 4.50295 13.6031 4.98251 14.8865C5.48125 16.1507 6.25813 17.2329 7.31315 18.1332C8.38736 19.0143 9.6342 19.4549 11.0537 19.4549C12.2622 19.4549 13.1829 19.2729 13.8159 18.909C14.0078 18.7749 14.1037 18.5546 14.1037 18.2481L14.0749 16.1794V15.9783C14.0749 14.829 14.0078 14.0533 13.8735 13.651C13.7967 13.402 13.509 13.22 13.0103 13.1051C12.5307 12.9902 12.1279 12.9327 11.8018 12.9327C11.7251 12.9327 11.6867 12.7986 11.6867 12.5305C11.6867 12.2432 11.7251 12.0612 11.8018 11.9846C12.0128 11.9846 12.5883 12.0133 13.5282 12.0708C14.4873 12.1282 15.2546 12.157 15.8301 12.157C15.8492 12.157 17.0098 12.0995 19.3116 11.9846C19.3692 12.157 19.398 12.3198 19.398 12.473C19.398 12.7986 19.3596 12.9615 19.2829 12.9615C19.1678 12.9615 18.9088 13.0189 18.506 13.1338C18.1223 13.2488 17.8442 13.3445 17.6716 13.4212C17.4222 13.5744 17.2975 14.2735 17.2975 15.5186C17.2975 15.9208 17.2975 16.3231 17.2975 16.7253C17.3167 17.1276 17.3263 17.3479 17.3263 17.3862C17.3263 17.7309 17.3742 18.0278 17.4701 18.2769C17.5661 18.5259 17.614 18.6695 17.614 18.7078C17.614 18.976 17.403 19.2059 16.981 19.3974C16.2137 19.7422 15.6478 19.9816 15.2834 20.1157C14.9189 20.2498 14.2188 20.4126 13.1829 20.6041C12.1663 20.7957 11.0345 20.8915 9.78766 20.8915C7.2556 20.8915 5.0976 19.9529 3.31365 18.0757C1.54889 16.1986 0.666504 13.9766 0.666504 11.4099Z" fill="white"/>
<path d="M25.6706 18.9951C26.1885 18.9951 26.6297 18.8611 26.9941 18.5929C27.3778 18.3247 27.5696 18.0183 27.5696 17.6735V14.7428C27.4353 14.8003 27.1476 14.8961 26.7064 15.0302C26.2844 15.1642 25.9583 15.2792 25.7281 15.3749C25.4979 15.4707 25.2294 15.6048 24.9224 15.7772C24.6155 15.9496 24.3853 16.1603 24.2319 16.4093C24.0976 16.6583 24.0305 16.9265 24.0305 17.2138C24.0305 17.8267 24.1839 18.2769 24.4908 18.5642C24.7978 18.8515 25.191 18.9951 25.6706 18.9951ZM26.9654 7.96211C28.1547 7.96211 29.0466 8.27816 29.6413 8.91026C30.2359 9.52321 30.5333 10.5863 30.5333 12.0995V17.7597C30.5333 18.1428 30.6196 18.4397 30.7922 18.6504C30.9649 18.8419 31.195 18.9377 31.4828 18.9377C31.7705 18.9377 32.0966 18.8132 32.4611 18.5642C32.5762 18.6025 32.6337 18.7078 32.6337 18.8802C32.6337 19.2633 32.5762 19.5506 32.4611 19.7422C32.1733 19.972 31.7897 20.2115 31.3101 20.4605C30.8306 20.7095 30.3702 20.834 29.929 20.834C29.4878 20.834 29.0562 20.6712 28.6342 20.3455C28.2122 20.0199 27.9341 19.6656 27.7998 19.2825C27.7806 19.3016 27.7039 19.3687 27.5696 19.4836C27.4545 19.5794 27.2819 19.7039 27.0517 19.8571C26.8407 20.0103 26.5913 20.1636 26.3036 20.3168C26.035 20.4701 25.7089 20.5946 25.3253 20.6903C24.9608 20.8053 24.5868 20.8627 24.2031 20.8627C23.244 20.8627 22.4575 20.6041 21.8437 20.087C21.249 19.5506 20.9517 18.8228 20.9517 17.9033C20.9517 17.4436 21.0572 17.0126 21.2682 16.6104C21.4984 16.2082 21.767 15.8825 22.0739 15.6335C22.3808 15.3654 22.7932 15.1068 23.3111 14.8578C23.8291 14.6088 24.2703 14.4268 24.6347 14.3119C25.0184 14.1778 25.4979 14.0245 26.0734 13.8521C26.668 13.6798 27.0805 13.5552 27.3106 13.4786C27.4833 13.402 27.5696 13.2488 27.5696 13.0189V11.4387C27.5696 10.7683 27.4161 10.2415 27.1092 9.85841C26.8023 9.47532 26.3899 9.28378 25.872 9.28378C25.2965 9.28378 24.8457 9.46575 24.5196 9.82968C24.1935 10.1745 24.0305 10.6725 24.0305 11.3237C24.0305 11.7068 23.8866 11.9942 23.5989 12.1857C23.3111 12.3581 22.985 12.4443 22.6206 12.4443C21.9108 12.4443 21.4121 12.2144 21.1244 11.7547C21.1244 10.8353 21.7478 9.97334 22.9946 9.16885C24.2607 8.36436 25.5842 7.96211 26.9654 7.96211Z" fill="white"/>
<path d="M43.3374 7.96211C44.0663 7.96211 44.6897 8.15366 45.2077 8.53675C45.7256 8.90069 46.1092 9.37955 46.3586 9.97334C46.9149 9.3987 47.615 8.91984 48.4591 8.53675C49.3031 8.15366 50.2046 7.96211 51.1638 7.96211C51.8543 7.96211 52.4394 8.11535 52.9189 8.42182C53.4177 8.72829 53.8013 9.15927 54.0699 9.71476C54.3576 10.2511 54.559 10.8449 54.6741 11.4961C54.8084 12.1282 54.8755 12.8178 54.8755 13.5648V16.5817C54.8755 17.7501 54.9427 18.6121 55.0769 19.1675C55.1153 19.3016 55.3743 19.4453 55.8538 19.5985C56.3334 19.7326 56.6595 19.7996 56.8321 19.7996C56.8897 19.7996 56.9184 19.9433 56.9184 20.2306C56.9376 20.4988 56.928 20.6808 56.8897 20.7765C56.7554 20.7574 56.247 20.7191 55.3647 20.6616C54.5015 20.6041 53.8493 20.5754 53.4081 20.5754C52.9477 20.5754 52.2859 20.6041 51.4227 20.6616C50.5787 20.7191 50.0704 20.7574 49.8977 20.7765C49.8402 20.6999 49.8114 20.5179 49.8114 20.2306C49.8114 19.9433 49.8402 19.7996 49.8977 19.7996C50.1279 19.7996 50.4732 19.7326 50.9336 19.5985C51.3939 19.4453 51.6433 19.3016 51.6817 19.1675C51.8159 18.5929 51.8831 17.9225 51.8831 17.1563V14.2257C51.8831 11.4482 50.9911 10.0595 49.2072 10.0595C48.5742 10.0595 48.0466 10.2128 47.6246 10.5192C47.2026 10.8257 46.9533 11.1226 46.8765 11.4099C46.8765 11.4674 46.8669 11.544 46.8477 11.6398C46.8477 11.7356 46.8573 11.8122 46.8765 11.8696C46.9341 12.291 46.9628 12.8848 46.9628 13.651V16.6966C46.9628 17.7884 47.03 18.6121 47.1643 19.1675C47.2026 19.3016 47.4616 19.4453 47.9411 19.5985C48.4207 19.7326 48.7468 19.7996 48.9194 19.7996C48.977 19.7996 49.0057 19.9433 49.0057 20.2306C49.0249 20.4988 49.0153 20.6808 48.977 20.7765C48.8427 20.7574 48.3344 20.7191 47.452 20.6616C46.5888 20.6041 45.9366 20.5754 45.4954 20.5754C45.035 20.5754 44.3732 20.6041 43.51 20.6616C42.666 20.7191 42.1577 20.7574 41.9851 20.7765C41.9275 20.6999 41.8987 20.5179 41.8987 20.2306C41.8987 19.9433 41.9275 19.7996 41.9851 19.7996C42.2152 19.7996 42.5605 19.7326 43.0209 19.5985C43.4813 19.4453 43.7306 19.3016 43.769 19.1675C43.9033 18.5929 43.9704 17.8938 43.9704 17.0701V14.3119C43.9704 12.8178 43.7498 11.7356 43.3086 11.0652C42.8674 10.3947 42.2152 10.0595 41.352 10.0595C40.7766 10.0595 40.2491 10.2224 39.7695 10.548C39.2899 10.8736 39.0502 11.2375 39.0502 11.6398V16.5817C39.0502 17.7501 39.1269 18.6121 39.2804 19.1675C39.3187 19.3016 39.5681 19.4453 40.0285 19.5985C40.4888 19.7326 40.8053 19.7996 40.978 19.7996C41.0547 19.7996 41.0931 19.9433 41.0931 20.2306C41.1123 20.4988 41.1027 20.6808 41.0643 20.7765C40.9108 20.7574 40.4025 20.7191 39.5393 20.6616C38.6953 20.6041 38.0527 20.5754 37.6115 20.5754C37.1319 20.5754 36.4606 20.6041 35.5974 20.6616C34.7342 20.7191 34.2258 20.7574 34.0724 20.7765C33.9956 20.6999 33.9573 20.5179 33.9573 20.2306C33.9573 19.9433 33.9956 19.7996 34.0724 19.7996C34.2834 19.7996 34.6287 19.7326 35.1082 19.5985C35.5878 19.4453 35.8467 19.3016 35.8851 19.1675C36.0194 18.5929 36.0865 17.8938 36.0865 17.0701V12.3868C36.0865 11.4866 35.9331 10.8736 35.6261 10.548C35.4727 10.3564 35.2521 10.2128 34.9644 10.117C34.6958 10.0212 34.4656 9.96377 34.2738 9.94461C34.082 9.92546 33.9861 9.89672 33.9861 9.85841C33.9861 9.30293 34.0436 9.01561 34.1587 8.99646C35.0411 8.91984 36.5757 8.63252 38.7624 8.1345C38.7816 8.11535 38.8104 8.10577 38.8488 8.10577C38.8871 8.08662 38.9159 8.07704 38.9351 8.07704C38.9734 8.07704 38.9926 8.07704 38.9926 8.07704C39.0885 8.07704 39.1653 8.14408 39.2228 8.27816C39.2804 8.41224 39.2995 8.51759 39.2804 8.59421C39.2036 9.13054 39.1653 9.47532 39.1653 9.62856C39.1653 9.70518 39.1844 9.75306 39.2228 9.77222C39.242 9.77222 39.2899 9.74349 39.3667 9.68602C39.827 9.22631 40.4121 8.82407 41.1218 8.47928C41.8508 8.1345 42.5893 7.96211 43.3374 7.96211Z" fill="white"/>
<path d="M65.5504 7.96211C66.7397 7.96211 67.8043 8.26858 68.7443 8.88153C69.7034 9.47532 70.4227 10.2415 70.9023 11.1801C71.401 12.0995 71.6504 13.0572 71.6504 14.0533C71.6504 15.9304 70.979 17.5394 69.6363 18.8802C68.3127 20.2019 66.7781 20.8627 65.0325 20.8627C64.2269 20.8627 63.5267 20.7957 62.9321 20.6616C62.3374 20.5084 61.8866 20.4317 61.5797 20.4317C61.4071 20.4317 61.1577 20.4988 60.8316 20.6329C60.5055 20.7669 60.3137 20.834 60.2561 20.834C60.1986 20.834 60.0547 20.7765 59.8245 20.6616C59.6135 20.5467 59.508 20.4509 59.508 20.3743C59.508 20.3168 59.5272 20.1444 59.5656 19.8571C59.6039 19.5698 59.6519 19.158 59.7094 18.6216C59.767 18.0853 59.7958 17.5011 59.7958 16.869V5.14639C59.7958 4.41851 59.7382 3.76726 59.6231 3.19262C59.5272 2.88615 59.0285 2.73291 58.1269 2.73291H57.8679C57.7529 2.73291 57.6953 2.57967 57.6953 2.2732C57.6953 1.96673 57.7529 1.81349 57.8679 1.81349C58.4626 1.75603 59.0285 1.67941 59.5656 1.58364C60.1027 1.48786 60.5439 1.39209 60.8891 1.29632C61.2536 1.20054 61.5605 1.10477 61.8099 1.009C62.0784 0.913225 62.2799 0.846184 62.4141 0.807875C62.5676 0.750412 62.6443 0.72168 62.6443 0.72168H62.7019C62.7786 0.72168 62.8553 0.779143 62.9321 0.894071C63.0088 0.989844 63.0567 1.08562 63.0759 1.18139C62.8649 1.92842 62.7594 2.82868 62.7594 3.88219V8.47928V8.50802C62.7594 8.56548 62.7594 8.61337 62.7594 8.65168C62.7594 8.67083 62.7594 8.70914 62.7594 8.7666C62.7786 8.82407 62.7978 8.8528 62.817 8.8528C62.8553 8.8528 62.8937 8.84322 62.9321 8.82407C63.2006 8.63252 63.5843 8.44098 64.083 8.24943C64.6009 8.05788 65.0901 7.96211 65.5504 7.96211ZM64.9174 9.51363C64.2844 9.51363 63.7665 9.6956 63.3637 10.0595C62.9608 10.4235 62.7594 10.8545 62.7594 11.3525V17.4436C62.7594 18.114 63.0088 18.6216 63.5075 18.9664C64.0254 19.3112 64.6297 19.4836 65.3202 19.4836C66.3177 19.4836 67.0658 19.0335 67.5646 18.1332C68.0825 17.2329 68.3414 16.1411 68.3414 14.8578C68.3414 13.2105 68.0441 11.908 67.4495 10.9502C66.8548 9.9925 66.0108 9.51363 64.9174 9.51363Z" fill="white"/>
<path d="M78.3258 16.5242C78.3258 17.7118 78.3929 18.5737 78.5272 19.1101C78.5656 19.2442 78.7958 19.3974 79.2178 19.5698C79.659 19.723 79.9563 19.7996 80.1098 19.7996C80.1673 19.7996 80.1961 19.9337 80.1961 20.2019C80.2153 20.4701 80.2057 20.652 80.1673 20.7478C79.8988 20.7286 79.5343 20.6999 79.0739 20.6616C78.6327 20.6424 78.2299 20.6233 77.8654 20.6041C77.501 20.585 77.1557 20.5754 76.8296 20.5754C76.4651 20.5754 76.1007 20.585 75.7362 20.6041C75.3717 20.6233 74.9689 20.6424 74.5277 20.6616C74.0865 20.6999 73.7221 20.7286 73.4343 20.7478C73.3576 20.6712 73.3192 20.4988 73.3192 20.2306C73.3192 19.9433 73.3576 19.7996 73.4343 19.7996C73.6453 19.7996 73.9618 19.723 74.3839 19.5698C74.825 19.3974 75.0648 19.2442 75.1032 19.1101C75.2566 18.4397 75.3334 17.7309 75.3334 16.9839V5.03146C75.3334 4.30359 75.2758 3.65233 75.1607 3.07769C75.0648 2.77122 74.5853 2.61798 73.7221 2.61798H73.4343C73.3192 2.61798 73.2617 2.50306 73.2617 2.2732C73.2617 1.96673 73.3192 1.81349 73.4343 1.81349C74.029 1.75603 74.5949 1.67941 75.132 1.58364C75.6691 1.48786 76.1103 1.39209 76.4555 1.29632C76.82 1.20054 77.1269 1.11435 77.3763 1.03773C77.6448 0.941957 77.8558 0.865339 78.0093 0.807875L78.2107 0.72168H78.2683C78.345 0.72168 78.4217 0.779143 78.4984 0.894071C78.5944 1.009 78.6519 1.10477 78.6711 1.18139C78.4409 1.90926 78.3258 2.80953 78.3258 3.88219V16.5242Z" fill="white"/>
<path d="M87.5045 9.28378C87.0441 9.28378 86.6317 9.41786 86.2673 9.68602C85.9028 9.95419 85.6246 10.2798 85.4328 10.6629C85.241 11.046 85.0971 11.4099 85.0012 11.7547C84.9245 12.0803 84.8861 12.3581 84.8861 12.5879C84.8861 12.722 84.9437 12.7891 85.0588 12.7891H89.7201C89.8927 12.7891 89.979 12.6454 89.979 12.3581C89.979 11.6877 89.7488 11.0077 89.2885 10.3181C88.8473 9.62856 88.2526 9.28378 87.5045 9.28378ZM87.7059 7.96211C88.6075 7.96211 89.4131 8.14408 90.1229 8.50802C90.8326 8.8528 91.3889 9.30293 91.7917 9.85841C92.1946 10.3947 92.5015 10.9598 92.7125 11.5536C92.9235 12.1282 93.029 12.6837 93.029 13.22C93.029 13.6414 92.9523 13.9096 92.7988 14.0245C92.6645 14.1203 92.3768 14.1682 91.9356 14.1682H85.0588C84.9245 14.1682 84.8574 14.2257 84.8574 14.3406C84.8574 15.0302 84.982 15.7006 85.2314 16.3518C85.4808 17.0031 85.9028 17.5681 86.4974 18.047C87.1113 18.5259 87.8402 18.7653 88.6842 18.7653C88.9719 18.7653 89.2501 18.7557 89.5186 18.7366C89.7872 18.6983 90.0366 18.6504 90.2667 18.5929C90.4969 18.5163 90.6983 18.4492 90.871 18.3918C91.0436 18.3343 91.2163 18.2481 91.3889 18.1332C91.5807 18.0183 91.715 17.9416 91.7917 17.9033C91.8685 17.8459 91.9836 17.7693 92.137 17.6735C92.2905 17.5586 92.3672 17.5011 92.3672 17.5011C92.4056 17.5202 92.4535 17.5777 92.5111 17.6735C92.5686 17.7693 92.5974 17.865 92.5974 17.9608C92.5974 18.1715 92.5398 18.3535 92.4248 18.5067C92.137 19.0239 91.5711 19.5411 90.7271 20.0582C89.8831 20.5754 88.9336 20.834 87.8786 20.834C86.2097 20.834 84.771 20.221 83.5626 18.9951C82.3541 17.7501 81.7498 16.2465 81.7498 14.4842C81.7498 12.5496 82.3061 10.979 83.4187 9.77222C84.5504 8.56548 85.9795 7.96211 87.7059 7.96211Z" fill="white"/>
<path d="M102.783 7.96211C103.838 7.96211 104.625 8.27816 105.143 8.91026C105.143 10.5384 104.682 11.3525 103.761 11.3525C103.416 11.3525 103.042 11.1609 102.639 10.7778C102.236 10.3947 101.824 10.2032 101.402 10.2032C100.807 10.2032 100.337 10.5097 99.9921 11.1226C99.666 11.7164 99.503 12.3389 99.503 12.9902V16.5817C99.503 17.7501 99.5701 18.6121 99.7044 19.1675C99.7428 19.3016 99.9921 19.4453 100.453 19.5985C100.932 19.7326 101.258 19.7996 101.431 19.7996C101.488 19.7996 101.517 19.9433 101.517 20.2306C101.536 20.4988 101.536 20.6808 101.517 20.7765C101.364 20.7574 100.855 20.7191 99.9921 20.6616C99.1289 20.6041 98.4767 20.5754 98.0356 20.5754C97.5752 20.5754 96.9038 20.6041 96.0214 20.6616C95.1582 20.7191 94.6499 20.7574 94.4964 20.7765C94.4197 20.6999 94.3813 20.5179 94.3813 20.2306C94.3813 19.9433 94.4197 19.7996 94.4964 19.7996C94.7266 19.7996 95.0719 19.7326 95.5323 19.5985C96.0118 19.4453 96.2708 19.3016 96.3092 19.1675C96.4434 18.5929 96.5106 17.8938 96.5106 17.0701V12.3868C96.5106 11.4866 96.3571 10.8736 96.0502 10.548C95.8967 10.3564 95.6761 10.2128 95.3884 10.117C95.1199 10.0212 94.8897 9.96377 94.6978 9.94461C94.5252 9.92546 94.4389 9.89672 94.4389 9.85841C94.4389 9.30293 94.4868 9.01561 94.5828 8.99646C95.4651 8.91984 97.0093 8.63252 99.2153 8.1345C99.2153 8.1345 99.244 8.12493 99.3016 8.10577C99.3783 8.08662 99.4263 8.07704 99.4454 8.07704C99.5222 8.07704 99.5893 8.14408 99.6469 8.27816C99.7044 8.41224 99.7236 8.52717 99.7044 8.62294C99.7044 8.69956 99.6948 8.83364 99.6756 9.02519C99.6565 9.19758 99.6277 9.38913 99.5893 9.59983C99.5701 9.79137 99.5605 9.91588 99.5605 9.97334C99.9058 9.45617 100.376 8.99646 100.97 8.59421C101.565 8.17281 102.169 7.96211 102.783 7.96211Z" fill="white"/>
<path d="M112.192 5.77849V10.4043C112.192 10.4618 112.202 10.5097 112.221 10.548C112.259 10.5671 112.298 10.5863 112.336 10.6054H112.365H112.595C112.998 10.6054 113.496 10.2798 114.091 9.62856C115.626 7.98127 117.314 6.06581 119.155 3.88219C119.462 3.51825 119.616 3.23093 119.616 3.02023C119.616 2.82868 119.405 2.6946 118.983 2.61798C118.561 2.54136 118.206 2.50306 117.918 2.50306C117.841 2.50306 117.793 2.39771 117.774 2.18701C117.755 1.95715 117.764 1.77518 117.803 1.6411C119.932 1.75603 121.093 1.81349 121.284 1.81349C121.649 1.81349 122.004 1.80391 122.349 1.78476C122.714 1.7656 123.097 1.74645 123.5 1.7273C123.922 1.68899 124.267 1.66025 124.536 1.6411C124.574 1.71772 124.584 1.88053 124.565 2.12954C124.565 2.37855 124.536 2.50306 124.478 2.50306C123.136 2.65629 122.167 3.05854 121.572 3.70979L116.22 9.80095C116.009 10.05 116.028 10.3181 116.278 10.6054L123.011 18.5929C123.356 19.0143 123.816 19.3208 124.392 19.5123C124.987 19.7039 125.418 19.7996 125.687 19.7996C125.783 19.7996 125.831 19.9816 125.831 20.3455C125.831 20.4988 125.802 20.6329 125.744 20.7478C123.442 20.6329 122.128 20.5754 121.802 20.5754C121.189 20.5754 120.45 20.6041 119.587 20.6616C118.743 20.6999 118.148 20.7286 117.803 20.7478C117.726 20.6712 117.688 20.4988 117.688 20.2306C117.688 19.9433 117.726 19.7996 117.803 19.7996C118.014 19.7996 118.282 19.7326 118.609 19.5985C118.935 19.4644 119.098 19.3208 119.098 19.1675C119.098 19.0718 118.829 18.6695 118.292 17.9608C117.755 17.2521 117.016 16.3518 116.076 15.26C115.137 14.149 114.206 13.1147 113.285 12.157C113.209 12.0803 112.998 12.042 112.652 12.042C112.346 12.042 112.192 12.157 112.192 12.3868V16.6391C112.192 17.6543 112.278 18.4971 112.451 19.1675C112.489 19.3016 112.748 19.4453 113.228 19.5985C113.727 19.7326 114.062 19.7996 114.235 19.7996C114.312 19.7996 114.35 19.9816 114.35 20.3455C114.35 20.4988 114.331 20.6329 114.293 20.7478C111.991 20.6329 110.773 20.5754 110.638 20.5754C110.255 20.5754 109.852 20.585 109.43 20.6041C109.008 20.6233 108.538 20.6424 108.02 20.6616C107.521 20.6999 107.118 20.7286 106.811 20.7478C106.735 20.6712 106.696 20.5371 106.696 20.3455C106.696 19.9816 106.735 19.7996 106.811 19.7996C107.042 19.7996 107.396 19.7326 107.876 19.5985C108.375 19.4644 108.653 19.3208 108.71 19.1675C108.864 18.5737 108.941 17.7693 108.941 16.7541V5.66356C108.941 4.51429 108.864 3.70979 108.71 3.25008C108.634 3.09685 108.365 2.95319 107.905 2.81911C107.444 2.66587 107.099 2.58925 106.869 2.58925C106.792 2.58925 106.754 2.44559 106.754 2.15827C106.754 1.8518 106.773 1.67941 106.811 1.6411C106.907 1.6411 107.435 1.66983 108.394 1.7273C109.372 1.78476 110.12 1.81349 110.638 1.81349C110.792 1.81349 112.019 1.75603 114.321 1.6411C114.379 1.81349 114.408 1.96673 114.408 2.10081C114.408 2.42644 114.369 2.58925 114.293 2.58925C114.12 2.58925 113.775 2.66587 113.257 2.81911C112.739 2.97234 112.461 3.116 112.422 3.25008C112.269 3.84388 112.192 4.68668 112.192 5.77849Z" fill="white"/>
<path d="M133.197 9.28378C132.736 9.28378 132.324 9.41786 131.959 9.68602C131.595 9.95419 131.317 10.2798 131.125 10.6629C130.933 11.046 130.789 11.4099 130.693 11.7547C130.617 12.0803 130.578 12.3581 130.578 12.5879C130.578 12.722 130.636 12.7891 130.751 12.7891H135.412C135.585 12.7891 135.671 12.6454 135.671 12.3581C135.671 11.6877 135.441 11.0077 134.981 10.3181C134.539 9.62856 133.945 9.28378 133.197 9.28378ZM133.398 7.96211C134.3 7.96211 135.105 8.14408 135.815 8.50802C136.525 8.8528 137.081 9.30293 137.484 9.85841C137.887 10.3947 138.194 10.9598 138.405 11.5536C138.616 12.1282 138.721 12.6837 138.721 13.22C138.721 13.6414 138.644 13.9096 138.491 14.0245C138.357 14.1203 138.069 14.1682 137.628 14.1682H130.751C130.617 14.1682 130.549 14.2257 130.549 14.3406C130.549 15.0302 130.674 15.7006 130.924 16.3518C131.173 17.0031 131.595 17.5681 132.19 18.047C132.803 18.5259 133.532 18.7653 134.376 18.7653C134.664 18.7653 134.942 18.7557 135.211 18.7366C135.479 18.6983 135.729 18.6504 135.959 18.5929C136.189 18.5163 136.39 18.4492 136.563 18.3918C136.736 18.3343 136.908 18.2481 137.081 18.1332C137.273 18.0183 137.407 17.9416 137.484 17.9033C137.561 17.8459 137.676 17.7693 137.829 17.6735C137.983 17.5586 138.059 17.5011 138.059 17.5011C138.098 17.5202 138.146 17.5777 138.203 17.6735C138.261 17.7693 138.289 17.865 138.289 17.9608C138.289 18.1715 138.232 18.3535 138.117 18.5067C137.829 19.0239 137.263 19.5411 136.419 20.0582C135.575 20.5754 134.626 20.834 133.571 20.834C131.902 20.834 130.463 20.221 129.255 18.9951C128.046 17.7501 127.442 16.2465 127.442 14.4842C127.442 12.5496 127.998 10.979 129.111 9.77222C130.243 8.56548 131.672 7.96211 133.398 7.96211Z" fill="white"/>
<path d="M143.123 8.24943C143.545 8.24943 144.15 8.2207 144.936 8.16323C145.723 8.10577 146.212 8.07704 146.404 8.07704C146.442 8.21112 146.461 8.38351 146.461 8.59421C146.461 8.86238 146.423 8.99646 146.346 8.99646C146.154 8.99646 145.847 9.07308 145.425 9.22631C145.022 9.3604 144.811 9.51363 144.792 9.68602V9.85841C144.831 10.1649 145.723 12.3485 147.468 16.4093C147.622 16.0645 147.996 15.1259 148.59 13.5936C149.185 12.042 149.53 11.1513 149.626 10.9215C149.741 10.5959 149.799 10.299 149.799 10.0308C149.799 9.7818 149.645 9.55194 149.338 9.34124C149.032 9.11139 148.571 8.99646 147.957 8.99646C147.881 8.99646 147.842 8.8528 147.842 8.56548C147.842 8.31647 147.881 8.15366 147.957 8.07704C148.188 8.07704 148.657 8.10577 149.367 8.16323C150.077 8.2207 150.662 8.24943 151.122 8.24943C151.525 8.24943 152.014 8.2207 152.59 8.16323C153.184 8.10577 153.616 8.07704 153.885 8.07704C153.961 8.19197 154 8.3452 154 8.53675C154 8.84322 153.961 8.99646 153.885 8.99646C153.616 8.99646 153.223 9.09223 152.705 9.28378C152.206 9.47532 151.88 9.76264 151.727 10.1457L146.461 22.8452C145.272 25.6418 143.843 27.0401 142.174 27.0401C141.675 27.0401 141.292 26.906 141.023 26.6378C140.754 26.3697 140.62 26.0632 140.62 25.7184C140.62 25.2204 140.802 24.8469 141.167 24.5979C143.162 24.5979 144.476 23.8125 145.109 22.2418C145.569 21.0926 145.828 20.4413 145.886 20.2881L141.685 10.5192C141.531 10.1745 141.416 9.95419 141.339 9.85841C141.148 9.5711 140.86 9.3604 140.476 9.22631C140.112 9.07308 139.805 8.99646 139.556 8.99646C139.479 8.99646 139.44 8.86238 139.44 8.59421C139.44 8.28774 139.469 8.11535 139.527 8.07704C139.642 8.07704 140.15 8.10577 141.052 8.16323C141.972 8.2207 142.663 8.24943 143.123 8.24943Z" fill="white"/>
</svg>
